<svg width="780" height="218" viewBox="0 0 780 218" fill="none" xmlns="http://www.w3.org/2000/svg">
<path d="M581.744 188.207L590.031 170.309C587.491 170.696 584.864 171.366 582.15 172.319C579.435 173.272 577.135 174.228 575.249 175.187C573.359 176.122 571.674 177.008 570.193 177.847C568.732 178.658 567.681 179.236 567.041 179.582C566.869 179.602 566.686 179.56 566.492 179.458C566.298 179.356 566.186 179.219 566.156 179.049C566.121 178.854 566.474 177.596 567.214 175.276C567.979 172.953 568.913 170.449 570.015 167.765C578.078 163.747 585.403 161.365 591.992 160.619C599.614 159.757 605.186 160.767 608.709 163.648C609.965 164.649 611.024 165.946 611.885 167.538C612.765 169.104 613.349 170.69 613.635 172.298C614.286 175.952 614.104 179.364 613.088 182.536C612.093 185.68 610.365 188.51 607.904 191.025C605.442 193.54 602.386 195.6 598.734 197.206C595.078 198.787 590.951 199.838 586.354 200.358C585.543 200.45 583.857 200.492 581.297 200.483L579.045 206.851C579.481 207.324 579.727 207.718 579.783 208.035C579.918 208.79 579.858 209.443 579.605 209.993C579.244 210.78 578.763 211.816 578.165 213.101C577.566 214.386 577.154 215.241 576.928 215.664C576.727 216.084 576.468 216.461 576.152 216.795C575.859 217.127 575.541 217.312 575.197 217.351C574.484 217.431 573.99 217.264 573.715 216.847C573.445 216.455 573.243 215.882 573.108 215.127C572.917 214.055 573.144 212.302 573.789 209.869C574.454 207.408 575.526 204.131 577.004 200.037C575.771 199.729 574.771 199.258 574.006 198.624C573.241 197.99 572.798 197.332 572.676 196.65C572.407 195.14 573.031 193.641 574.546 192.152C576.062 190.664 578.461 189.348 581.744 188.207ZM585.755 188.759L584.278 192.505C585.221 192.448 586.053 192.403 586.775 192.371C587.521 192.337 588.14 192.291 588.632 192.236C592.934 191.749 596.557 190.755 599.5 189.254C602.468 187.751 604.724 186.054 606.268 184.165C607.833 182.248 608.881 180.39 609.414 178.59C609.946 176.791 610.11 175.318 609.906 174.174C609.624 172.59 608.764 171.42 607.325 170.664C605.886 169.907 603.933 169.507 601.468 169.463C599.022 169.391 595.906 169.57 592.12 169.998C592.217 170.261 592.3 170.587 592.37 170.976C592.595 172.243 592.216 173.988 591.233 176.212L586.593 186.913L591.326 185.818C591.719 185.773 591.949 185.934 592.014 186.299C592.07 186.616 591.79 186.871 591.172 187.065L585.755 188.759ZM628.15 176.694C627.535 176.764 626.904 176.599 626.256 176.2C625.633 175.799 625.258 175.245 625.132 174.538C624.942 173.466 625.245 172.214 626.044 170.782C626.842 169.35 627.794 168.571 628.901 168.446C629.638 168.363 630.294 168.525 630.868 168.932C631.438 169.315 631.799 169.932 631.951 170.785C632.137 171.832 631.839 173.046 631.057 174.427C630.274 175.808 629.305 176.564 628.15 176.694ZM633.567 192.743L634.042 195.411C632.199 198.725 630.384 201.279 628.597 203.071C626.805 204.84 625.184 205.806 623.733 205.97C621.717 206.198 620.031 205.32 618.674 203.337C617.318 201.353 616.418 199.119 615.976 196.634C615.806 195.684 615.744 194.772 615.789 193.897C615.83 192.998 615.935 192.253 616.106 191.662C616.277 191.071 616.624 190.137 617.149 188.86C619.682 183.082 622.398 180.029 625.299 179.701C626.799 179.531 627.651 180.019 627.855 181.163C627.994 181.943 627.719 183.216 627.031 184.984C626.367 186.749 625.717 188.028 625.08 188.82C623.306 191.109 622.158 192.692 621.638 193.571C621.142 194.447 620.985 195.397 621.167 196.42C621.323 197.297 621.785 197.99 622.553 198.5C623.321 199.009 624.233 199.204 625.291 199.084C626.446 198.954 627.639 198.396 628.868 197.412C630.117 196.401 631.684 194.845 633.567 192.743ZM650.828 190.38L651.309 193.084C647.373 200.413 643.794 204.26 640.573 204.624C638.828 204.821 637.284 204.039 635.942 202.278C634.62 200.489 633.686 198.06 633.139 194.991C632.697 192.506 632.762 189.492 633.335 185.948C633.903 182.38 634.858 178.731 636.2 175.001C637.563 171.243 639.069 167.942 640.719 165.096C642.389 162.224 644.041 160.161 645.674 158.907C646.333 158.385 646.872 158.101 647.29 158.053C647.806 157.995 648.192 158.188 648.446 158.631C648.696 159.05 648.919 159.807 649.114 160.904C649.717 164.29 649.07 168.612 647.173 173.871C645.271 179.106 642.294 184.574 638.244 190.276C638.223 191.57 638.274 192.559 638.395 193.241C638.673 194.8 639.231 196.029 640.068 196.928C640.93 197.824 641.963 198.205 643.168 198.068C643.783 197.999 644.405 197.692 645.036 197.149C645.662 196.581 646.305 195.899 646.966 195.104C647.627 194.308 648.914 192.734 650.828 190.38ZM638.63 185.051C639.687 183.664 640.665 182.112 641.563 180.395C642.485 178.676 643.315 176.855 644.051 174.933C644.787 173.01 645.322 171.297 645.656 169.793C646.015 168.287 646.129 167.168 645.999 166.437C645.899 165.877 645.653 165.619 645.259 165.664C645.112 165.68 644.853 165.846 644.483 166.161C643.2 167.549 641.941 170.127 640.706 173.895C639.466 177.638 638.774 181.357 638.63 185.051ZM653.754 183.787C656.892 180.003 660.074 177.096 663.299 175.066C666.524 173.036 669.096 171.913 671.013 171.696C671.529 171.637 672.048 171.802 672.569 172.191C673.085 172.555 673.516 173.003 673.861 173.535C674.232 174.065 674.441 174.464 674.488 174.732C674.566 175.17 674.453 175.519 674.148 175.777C673.838 176.011 673.279 176.322 672.471 176.712C672.712 177.082 673.023 177.557 673.402 178.135C673.78 178.713 674.078 179.189 674.295 179.562C674.508 179.911 674.64 180.231 674.692 180.524C674.796 181.108 674.389 182.273 673.471 184.017C672.573 185.733 671.945 186.997 671.588 187.808C671.255 188.616 671.187 189.568 671.382 190.664C671.703 192.467 672.699 193.273 674.371 193.084C676.092 192.89 678.5 190.99 681.595 187.384L681.992 189.613C676.991 197.161 673.15 201.087 670.471 201.391C669.512 201.499 668.767 201.26 668.236 200.674C667.734 200.11 667.375 199.219 667.158 198.001C666.815 196.076 667.019 193.208 667.77 189.395C664.883 193.748 662.717 196.863 661.271 198.741C659.82 200.595 658.529 201.586 657.398 201.714C656.858 201.775 656.099 201.389 655.123 200.555C654.147 199.721 653.209 198.61 652.309 197.22C651.43 195.804 650.849 194.304 650.567 192.721C650.363 191.576 650.305 190.613 650.392 189.833C650.474 189.029 650.763 188.188 651.259 187.312C651.755 186.436 652.587 185.261 653.754 183.787ZM670.703 177.769C664.827 181.391 660.705 184.368 658.336 186.698C655.991 189.026 655.01 191.262 655.392 193.405C655.531 194.185 655.781 194.815 656.142 195.296C656.5 195.752 656.912 195.954 657.379 195.901C657.649 195.871 658.098 195.646 658.726 195.227C661.039 193.425 663.05 191.197 664.759 188.543C666.464 185.865 668.445 182.274 670.703 177.769ZM681.419 190.2L680.996 187.825C682.046 186.115 682.818 184.674 683.311 183.5C682.476 183.321 681.84 183.057 681.402 182.709C680.988 182.358 680.712 181.793 680.573 181.014C680.417 180.137 680.588 178.987 681.087 177.564C681.586 176.141 682.273 174.783 683.146 173.491C684.02 172.2 684.869 171.333 685.693 170.892C686.007 170.683 686.323 170.56 686.643 170.524C687.135 170.468 687.422 170.672 687.504 171.135C687.578 171.549 687.347 172.432 686.81 173.785C691.736 172.433 694.862 171.681 696.19 171.531C696.706 171.473 697.072 171.481 697.286 171.556C697.743 171.728 698.178 172.201 698.591 172.974C699.005 173.747 699.283 174.536 699.427 175.34C699.518 175.851 699.384 176.438 699.025 177.1C698.687 177.734 698.066 178.687 697.164 179.957C696.108 181.493 695.283 183.127 694.689 184.859C694.094 186.591 693.871 187.871 694.019 188.7C694.222 189.844 695.037 190.336 696.463 190.175C697.963 190.005 700.3 188.2 703.475 184.76L703.911 187.208C702.247 189.558 700.86 191.417 699.75 192.785C698.639 194.153 697.583 195.267 696.583 196.125C695.577 196.96 694.632 197.427 693.747 197.527C692.715 197.644 691.772 197.278 690.919 196.431C690.061 195.559 689.474 194.233 689.157 192.455C688.971 191.408 689.028 190.184 689.331 188.783C689.633 187.382 690.162 185.843 690.916 184.168C691.692 182.465 692.592 180.76 693.617 179.054C692.955 179.278 692.209 179.524 691.379 179.791C690.544 180.035 689.663 180.296 688.734 180.575C687.806 180.854 687.092 181.072 686.593 181.227C685.607 184.42 683.882 187.411 681.419 190.2ZM712.907 164.421L714.493 164.242C715.383 161.781 716.273 160.015 717.161 158.945C718.044 157.851 719.162 157.228 720.515 157.075C721.867 156.922 722.597 157.15 722.706 157.759C722.758 158.051 722.37 158.903 721.543 160.313C720.716 161.724 720.11 162.898 719.725 163.836C720.578 163.839 721.331 163.841 721.983 163.842C722.66 163.84 723.187 163.842 723.565 163.849C722.623 166.59 721.336 169.432 719.703 172.375C719.006 172.404 718.422 172.433 717.95 172.461C717.475 172.465 716.989 172.483 716.493 172.514C716.017 172.519 715.43 172.535 714.733 172.564C713.783 174.834 713.003 176.86 712.393 178.644C711.802 180.401 711.385 182.001 711.141 183.445C710.921 184.886 710.922 186.228 711.143 187.47C711.442 189.151 712.268 189.915 713.62 189.762C714.555 189.656 715.685 189.031 717.011 187.887C718.357 186.716 720.114 184.964 722.282 182.632L722.718 185.08C717.351 192.968 713.082 197.091 709.911 197.45C708.804 197.575 707.831 197.251 706.991 196.476C706.175 195.699 705.648 194.64 705.409 193.3C705.249 192.399 705.242 191.306 705.39 190.022C705.562 188.735 705.916 186.782 706.453 184.162C706.161 184.493 705.881 184.823 705.613 185.151C705.366 185.453 705.129 185.74 704.902 186.015C704.695 186.262 704.468 186.536 704.221 186.837C703.969 187.114 703.72 187.403 703.472 187.705L703.023 185.183C705.223 182.748 707.675 178.631 710.379 172.833C710.006 172.851 709.66 172.877 709.34 172.914C709.016 172.925 708.633 172.956 708.191 173.006C706.74 173.17 705.676 173.39 704.997 173.666C704.715 173.772 704.448 173.89 704.195 174.018C703.962 174.118 703.796 174.174 703.698 174.186C703.6 174.197 703.537 174.129 703.511 173.983C703.368 173.179 703.658 171.916 704.379 170.195C704.948 168.739 705.53 167.642 706.126 166.903C706.746 166.162 707.553 165.624 708.546 165.288C709.56 164.924 711.014 164.636 712.907 164.421ZM728.356 183.361L728.519 184.274C728.775 185.712 729.331 186.792 730.187 187.515C731.043 188.238 732.049 188.534 733.205 188.404C734.409 188.267 735.601 187.847 736.78 187.142C737.983 186.434 739.141 185.545 740.255 184.475C741.369 183.405 742.708 181.986 744.275 180.218L744.672 182.447C742.484 186.074 740.331 188.914 738.214 190.968C736.092 192.997 733.777 194.154 731.27 194.437C729.082 194.685 727.199 194.041 725.621 192.505C724.043 190.968 722.994 188.739 722.473 185.816C722.018 183.258 722.208 180.876 723.044 178.669C723.875 176.438 725.45 174.011 727.766 171.388C729.353 169.593 730.997 168.19 732.697 167.177C734.398 166.165 735.974 165.576 737.424 165.412C738.58 165.282 739.537 165.447 740.296 165.907C741.076 166.341 741.559 167.082 741.745 168.129C742.019 169.664 741.714 171.264 740.832 172.929C739.946 174.57 738.444 176.281 736.329 178.061C734.233 179.814 731.576 181.58 728.356 183.361ZM728.302 180.944C730.363 179.841 732.067 178.568 733.415 177.123C734.763 175.678 735.704 174.342 736.238 173.113C736.791 171.858 737.021 170.962 736.925 170.426C736.825 169.866 736.517 169.615 736.001 169.674C735.559 169.724 734.883 170.086 733.975 170.76C733.091 171.432 732.213 172.276 731.341 173.295C730.494 174.31 729.773 175.472 729.179 176.782C728.584 178.092 728.292 179.479 728.302 180.944ZM744.309 181.258L744.153 180.381C749.316 173.038 752.854 167.904 754.766 164.979C754.773 161.921 755.809 160.276 757.874 160.042C758.391 159.984 758.97 160.067 759.612 160.293L759.957 160.962C759.91 161.266 759.935 161.685 760.03 162.221C760.113 162.684 760.439 163.529 761.009 164.757C761.599 165.958 762.068 166.973 762.417 167.803C762.765 168.634 763.035 169.585 763.226 170.656C763.512 172.264 763.419 173.853 762.946 175.422C762.469 176.967 761.651 178.501 760.492 180.023C759.33 181.522 757.768 183.102 755.807 184.766C756.718 184.812 757.432 184.805 757.948 184.747C758.956 184.633 759.994 184.267 761.063 183.649C762.152 183.004 763.225 182.199 764.282 181.235C765.36 180.243 766.59 178.986 767.974 177.462L768.41 179.91C765.806 183.311 763.403 185.944 761.202 187.808C758.996 189.648 756.996 190.669 755.201 190.873C752.89 191.134 750.578 190.402 748.264 188.675C746.9 187.637 745.975 186.598 745.49 185.56C745.028 184.519 744.635 183.085 744.309 181.258ZM757.069 174.111L755.455 168.852C754.235 170.729 751.561 174.374 747.433 179.786C748.965 179.936 750.049 180.248 750.685 180.723C751.321 181.198 752.268 182.147 753.525 183.57C755.075 182.699 756.189 181.629 756.865 180.359C757.562 179.063 757.729 177.391 757.364 175.345C757.321 175.102 757.27 174.884 757.21 174.692C757.176 174.497 757.129 174.303 757.069 174.111Z" fill="white"/>
<path d="M222.74 50.2289V149H182.559V13.9072H234.122C249.825 13.9072 261.998 17.8 270.641 25.5856C280.274 34.2948 285.091 45.3464 285.091 58.7402C285.091 72.3979 279.12 83.9113 267.177 93.2804L290.336 149H248.175L228.678 105.454V70.7155H231.845C240.291 70.7155 244.513 67.0866 244.513 59.8289C244.513 53.4289 239.631 50.2289 229.866 50.2289H222.74ZM355.953 111.986V150.287C352.918 150.814 350.146 151.078 347.639 151.078C332.794 151.078 320.423 146.196 310.526 136.431C300.629 126.666 295.68 114.427 295.68 99.7134C295.68 85.3959 300.662 73.2557 310.625 63.2928C320.654 53.3299 332.827 48.3485 347.144 48.3485C363.111 48.3485 375.68 53.033 384.852 62.4021C394.089 71.7052 398.707 84.4392 398.707 100.604V149H361.693V103.276C361.693 98.0639 360.406 93.9072 357.833 90.8062C355.326 87.7052 351.928 86.1546 347.639 86.1546C343.746 86.1546 340.381 87.5732 337.544 90.4103C334.707 93.2474 333.289 96.6124 333.289 100.505C333.289 104.596 334.575 107.961 337.148 110.6C339.722 113.239 342.988 114.559 346.946 114.559C350.179 114.559 353.181 113.701 355.953 111.986ZM473.825 72.2V110.996H457.297V149H420.282V65.1732C420.282 55.7381 421.899 47.6887 425.132 41.0247C429.223 32.5134 435.425 25.5856 443.738 20.2412C452.118 14.8309 460.827 12.1258 469.866 12.1258L473.825 12.2247V51.0206C472.967 50.9546 472.34 50.9216 471.944 50.9216C467.26 50.9216 463.631 52.4722 461.058 55.5732C458.551 58.6742 457.297 63.0948 457.297 68.8351V72.2H473.825ZM544.983 111.986V150.287C541.948 150.814 539.177 151.078 536.67 151.078C521.825 151.078 509.454 146.196 499.557 136.431C489.66 126.666 484.711 114.427 484.711 99.7134C484.711 85.3959 489.693 73.2557 499.656 63.2928C509.685 53.3299 521.858 48.3485 536.175 48.3485C552.142 48.3485 564.711 53.033 573.882 62.4021C583.12 71.7052 587.738 84.4392 587.738 100.604V149H550.724V103.276C550.724 98.0639 549.437 93.9072 546.864 90.8062C544.357 87.7052 540.959 86.1546 536.67 86.1546C532.777 86.1546 529.412 87.5732 526.575 90.4103C523.738 93.2474 522.32 96.6124 522.32 100.505C522.32 104.596 523.606 107.961 526.179 110.6C528.753 113.239 532.019 114.559 535.977 114.559C539.21 114.559 542.212 113.701 544.983 111.986ZM706.303 105.652H650.188C649.33 102.814 648.901 100.208 648.901 97.833C648.901 94.534 649.495 91.301 650.682 88.134H669.487C668.167 80.8103 664.043 77.1485 657.115 77.1485C652.497 77.1485 648.736 79.1278 645.833 83.0866C642.93 86.9794 641.478 91.9938 641.478 98.1299C641.478 104.53 642.864 109.709 645.635 113.668C648.472 117.627 652.167 119.606 656.72 119.606C660.414 119.606 663.977 117.759 667.408 114.064L688.489 139.4C678.658 147.12 667.738 150.979 655.73 150.979C641.082 150.979 628.777 146.064 618.814 136.233C608.852 126.402 603.87 114.229 603.87 99.7134C603.87 85.2639 608.885 73.0577 618.913 63.0948C629.008 53.132 641.379 48.1505 656.027 48.1505C670.344 48.1505 682.353 53.033 692.052 62.7979C701.816 72.4969 706.699 84.4722 706.699 98.7237C706.699 100.175 706.567 102.485 706.303 105.652ZM758.757 13.9072V149H721.742V13.9072H758.757Z" fill="white"/>
<rect y="18.6701" width="144.742" height="144.742" rx="22.4081" fill="url(#paint0_radial_101_37)"/>
<path d="M98.7517 124.886C107.805 124.886 115.523 121.948 121.906 116.071C122.434 115.584 122.436 114.758 121.928 114.25L111.526 103.848C111.021 103.343 110.205 103.347 109.666 103.817C106.58 106.508 102.942 107.854 98.7517 107.854C94.1257 107.854 90.2146 106.214 87.0185 102.933C84.0481 99.9631 82.4226 96.441 82.142 92.3671C82.0929 91.6542 81.5187 91.0741 80.8041 91.0741H66.36C65.6453 91.0741 65.0637 91.6546 65.0869 92.3688C65.3756 101.229 68.6489 108.787 74.9068 115.045C81.3832 121.606 89.3315 124.886 98.7517 124.886Z" fill="white" stroke="white" stroke-width="1.29399"/>
<path d="M123.566 75.3348C117.835 68.5721 110.573 64.6832 101.782 63.668L56.1313 63.6679L56.1313 80.6834L99.8171 80.6835C103.99 81.1653 107.452 82.9151 110.203 85.9329C110.685 86.461 111.495 86.5588 112.055 86.1148L123.373 77.1402C123.933 76.6962 124.028 75.88 123.566 75.3348Z" fill="white" stroke="white" stroke-width="1.29399"/>
<path d="M58.5586 90.6576C59.5108 90.1078 60.6714 90.9209 60.4798 92.0036L57.6233 108.15C57.4322 109.23 56.7927 110.18 55.863 110.762L33.2784 124.924C32.6573 125.314 31.837 125.11 31.4704 124.475L24.2461 111.962C23.8887 111.343 24.1008 110.552 24.7197 110.194L58.5586 90.6576Z" fill="white"/>
<path d="M19.9907 64.2789C19.9907 63.5643 20.57 62.9849 21.2847 62.9849H80.4441V81.3838H21.2847C20.57 81.3838 19.9907 80.8045 19.9907 80.0898V64.2789Z" fill="white"/>
<defs>
<radialGradient id="paint0_radial_101_37" cx="0" cy="0" r="1" gradientUnits="userSpaceOnUse" gradientTransform="translate(81.9536 82.5979) rotate(139.996) scale(88.8661 88.9323)">
<stop stop-color="#FF5247"/>
<stop offset="1" stop-color="#C00F0F"/>
</radialGradient>
</defs>
</svg>
